# xmcd
#
# Track frame offsets: 
#        150
#        12230
#        27720
#        46163
#        69332
#        81605
#        98798
#        113673
#        127672
#        147653
#        173548
#        194500
#        218299
#        233669
#        250332
#        275107
#
# Disc length: 3914 seconds
#
# Revision: 0
# Processed by: cddbd v1.5.1PL2 Copyright (c) Steve Scherf et al.
# Submitted via: ExactAudioCopy v0.95b4
#
DISCID=dd0f4810
DTITLE=Кукуруза - Антология CD 2
DYEAR=2006
DGENRE=Country
TTITLE0=Maple Leaf Rag
TTITLE1=Poor Wayfaring Stranger
TTITLE2=That's The Easy Part
TTITLE3=Усталость
TTITLE4=Порушка-Пораня
TTITLE5=Скучно, Матушка
TTITLE6=С Богом, Милый Мой
TTITLE7=Падающие Зёрна
TTITLE8=Горница
TTITLE9=Счастливый Человек
TTITLE10=Blue Bayou
TTITLE11=Gentle River
TTITLE12=Помню Я Ещё Молодушкой Была
TTITLE13=Из-за Острова На Стрежень
TTITLE14=Чёрный Ворон
TTITLE15=Я На Камушке Сижу
EXTD=
EXTT0=
EXTT1=
EXTT2=
EXTT3=
EXTT4=
EXTT5=
EXTT6=
EXTT7=
EXTT8=
EXTT9=
EXTT10=
EXTT11=
EXTT12=
EXTT13=
EXTT14=
EXTT15=
PLAYORDER=
